Coordinates
version=1
nRows=16
nColumns=63
inDegrees=yes

Units are S.I. units (second, meters, Newtons, ...)
If the header above contains a line with 'inDegrees', this indicates whether rotational values are in degrees (yes) or radians (no).

endheader
time	pelvis_tilt	pelvis_list	pelvis_rotation	pelvis_tx	pelvis_ty	pelvis_tz	hip_flexion_r	hip_adduction_r	hip_rotation_r	knee_angle_r	knee_angle_r_beta	ankle_angle_r	subtalar_angle_r	mtp_angle_r	hip_flexion_l	hip_adduction_l	hip_rotation_l	knee_angle_l	knee_angle_l_beta	ankle_angle_l	subtalar_angle_l	mtp_angle_l	L5_S1_Flex_Ext	L5_S1_Lat_Bending	L5_S1_axial_rotation	L4_L5_Flex_Ext	L4_L5_Lat_Bending	L4_L5_axial_rotation	L3_L4_Flex_Ext	L3_L4_Lat_Bending	L3_L4_axial_rotation	L2_L3_Flex_Ext	L2_L3_Lat_Bending	L2_L3_axial_rotation	L1_L2_Flex_Ext	L1_L2_Lat_Bending	L1_L2_axial_rotation	L1_T12_Flex_Ext	L1_T12_Lat_Bending	L1_T12_axial_rotation	Abs_r3	Abs_r2	Abs_r1	Abs_t1	Abs_t2	neck_flexion	neck_bending	neck_rotation	arm_flex_r	arm_add_r	arm_rot_r	elbow_flex_r	pro_sup_r	wrist_flex_r	wrist_dev_r	arm_flex_l	arm_add_l	arm_rot_l	elbow_flex_l	pro_sup_l	wrist_flex_l	wrist_dev_l
4.050000	-3.773119	7.199147	107.804898	0.084575	1.010784	0.496028	-2.958894	-5.690541	-21.928644	20.517499	0.358098	34.397796	17.438260	0.000000	-7.441619	-1.090674	-0.319675	6.117663	0.106773	28.519140	10.747283	0.000000	-0.118821	-0.194704	2.593018	-0.220663	-0.258957	2.755081	-0.195211	-0.473404	2.755081	-0.135801	-0.473404	2.268891	-0.110337	-0.397041	2.106827	-0.067894	-0.301597	1.944763	-0.848727	-2.202533	14.421587	0.000000	0.000000	21.533444	1.170750	-3.325720	98.615223	-76.639558	60.723672	149.038647	26.476889	29.286018	15.628994	129.329976	-62.009873	81.667578	149.964954	1.263025	29.038338	32.088562
4.066667	-3.546324	7.102388	106.373750	0.090098	1.010333	0.498659	-2.211629	-5.401730	-20.597678	20.628406	0.360034	34.226058	17.573413	0.000000	-6.955549	-1.416663	-2.657069	6.611681	0.115396	28.690798	11.550068	0.000000	-0.134793	-0.172138	2.845834	-0.250324	-0.228943	3.023698	-0.221451	-0.418536	3.023698	-0.154055	-0.418536	2.490104	-0.125169	-0.351023	2.312240	-0.077021	-0.266641	2.134375	-0.962812	-1.947258	15.827672	0.000000	0.000000	21.310144	1.226271	-4.385386	90.905820	-77.255425	53.585394	150.002393	25.933670	30.495028	15.054730	124.865109	-61.412899	77.788362	149.884407	0.778755	30.437225	32.399037
4.083333	-3.317778	6.920932	104.983660	0.095590	1.009808	0.501304	-1.453880	-5.085554	-19.304279	20.624683	0.359969	34.002738	17.705274	0.000000	-6.304033	-1.778635	-5.122065	7.289420	0.127224	28.888851	12.474141	0.000000	-0.146224	-0.152737	3.050920	-0.271553	-0.203140	3.241603	-0.240232	-0.371364	3.241603	-0.167120	-0.371364	2.669555	-0.135784	-0.311461	2.478873	-0.083552	-0.236589	2.288190	-1.044464	-1.727789	16.968302	0.000000	0.000000	21.034964	1.438633	-5.466993	82.640653	-77.471330	45.842614	150.764250	25.642223	31.388341	14.683687	120.269677	-60.978709	73.431810	149.808127	1.490174	31.867128	32.626455
4.100000	-3.093963	6.650365	103.684995	0.100968	1.009214	0.503852	-0.701504	-4.746169	-18.098498	20.496489	0.357731	33.738369	17.838111	0.000000	-5.495355	-2.175033	-7.624407	8.133666	0.141959	29.090837	13.465627	0.000000	-0.151294	-0.136658	3.180600	-0.280967	-0.181755	3.379388	-0.248560	-0.332271	3.379388	-0.172913	-0.332271	2.783025	-0.140491	-0.278673	2.584238	-0.086449	-0.211684	2.385450	-1.080675	-1.545905	17.689545	0.000000	0.000000	20.706279	1.825382	-6.403802	74.119337	-77.162128	37.793619	151.099466	26.485654	32.080579	14.102944	115.302495	-60.839041	68.429436	149.776641	3.312180	33.050030	32.766287
4.116667	-2.865770	6.296643	102.507378	0.106142	1.008557	0.506228	0.033893	-4.377759	-17.002614	20.244944	0.353341	33.433646	17.969375	0.000000	-4.534111	-2.619598	-10.098356	9.152841	0.159747	29.302000	14.487487	0.000000	-0.148869	-0.121721	3.231880	-0.276465	-0.161889	3.433873	-0.244577	-0.295953	3.433873	-0.170143	-0.295953	2.827895	-0.138240	-0.248214	2.625903	-0.085064	-0.188546	2.423910	-1.063359	-1.376936	17.974747	0.000000	0.000000	20.333976	2.313178	-7.144167	65.561459	-76.328743	29.708263	150.932615	28.543371	32.437599	13.230987	109.805134	-61.006660	62.770389	149.778000	5.699559	33.759909	32.985792
4.133333	-2.636550	5.868071	101.487153	0.111039	1.007876	0.508351	0.736505	-3.987113	-16.042326	19.874470	0.346875	33.088737	18.078933	0.000000	-3.439370	-3.104453	-12.470195	10.326375	0.180229	29.523789	15.519051	0.000000	-0.137903	-0.107855	3.198600	-0.256099	-0.143447	3.398512	-0.226561	-0.262239	3.398512	-0.157609	-0.262239	2.798775	-0.128057	-0.219938	2.598862	-0.078798	-0.167068	2.398950	-0.985026	-1.220079	17.789653	0.000000	0.000000	19.912626	2.876218	-7.602445	57.212904	-74.994364	21.944050	150.220950	31.592341	32.301336	12.135339	103.651105	-61.498114	56.475078	149.797621	8.950819	33.803269	32.913189
4.150000	-2.412414	5.381186	100.633256	0.115583	1.007227	0.510159	1.384305	-3.588913	-15.226376	19.388665	0.338396	32.694305	18.173769	0.000000	-2.249418	-3.610141	-14.649079	11.613695	0.202697	29.762294	16.509481	0.000000	-0.118451	-0.096190	3.102342	-0.219976	-0.127933	3.296239	-0.194604	-0.233877	3.296239	-0.135378	-0.233877	2.714550	-0.109994	-0.196151	2.520653	-0.067683	-0.148999	2.326757	-0.846086	-1.088123	17.254298	0.000000	0.000000	19.421470	3.491362	-7.887570	49.253188	-73.274265	14.763517	149.072624	34.788297	31.447167	11.144647	96.781209	-62.210894	49.653715	149.756893	13.217966	32.967992	32.335034
4.166667	-2.210862	4.851519	99.957749	0.119725	1.006652	0.511598	1.957939	-3.209105	-14.572848	18.803468	0.328182	32.245779	18.252232	0.000000	-1.010295	-4.102612	-16.532073	12.958460	0.226168	30.025597	17.401744	0.000000	-0.092139	-0.090540	2.971476	-0.171111	-0.120418	3.157194	-0.151375	-0.220139	3.157194	-0.105306	-0.220139	2.600042	-0.085560	-0.184630	2.414325	-0.052648	-0.140247	2.228607	-0.658139	-1.024209	16.526460	0.000000	0.000000	18.854952	4.174566	-8.198429	41.694263	-71.252661	8.216802	147.666717	37.479869	29.684822	10.557141	89.449285	-62.958940	42.667887	149.524021	18.417267	31.307865	31.133821
4.183333	-2.034308	4.296651	99.436757	0.123401	1.006176	0.512629	2.445069	-2.858660	-14.062462	18.125236	0.316345	31.740227	18.317699	0.000000	0.212549	-4.551687	-17.996099	14.262748	0.248932	30.296115	18.066736	0.000000	-0.059108	-0.090298	2.831827	-0.109770	-0.120096	3.008816	-0.097109	-0.219550	3.008816	-0.067555	-0.219550	2.477848	-0.054888	-0.184135	2.300859	-0.033775	-0.139871	2.123870	-0.422205	-1.021465	15.749771	0.000000	0.000000	18.176056	4.895667	-8.601359	35.002533	-69.048770	2.809089	146.145891	39.032418	26.924564	10.518830	81.639669	-63.595437	35.611525	149.039960	24.326528	28.954238	29.320624
4.200000	-1.897423	3.765503	99.068850	0.126610	1.005819	0.513336	2.812621	-2.546188	-13.683872	17.383795	0.303404	31.201612	18.360684	0.000000	1.351876	-4.937924	-18.989937	15.485500	0.270273	30.583776	18.484858	0.000000	-0.025673	-0.095226	2.689249	-0.047678	-0.126651	2.857327	-0.042179	-0.231532	2.857327	-0.029342	-0.231532	2.353093	-0.023840	-0.194185	2.185015	-0.014670	-0.147505	2.016937	-0.183383	-1.077215	14.956798	0.000000	0.000000	17.335051	5.655940	-9.120618	29.000055	-66.598329	-1.629869	144.469882	39.851773	23.524752	11.058349	73.665329	-64.033645	28.848899	148.268228	30.882497	26.220736	26.910989
4.216667	-1.793352	3.302404	98.822796	0.129324	1.005571	0.513813	3.045993	-2.266540	-13.414916	16.613179	0.289955	30.658267	18.388608	0.000000	2.335419	-5.253343	-19.467633	16.564348	0.289102	30.869797	18.584880	0.000000	0.004374	-0.100821	2.549566	0.008124	-0.134091	2.708914	0.007187	-0.245135	2.708914	0.004999	-0.245135	2.230871	0.004062	-0.205593	2.071523	0.002500	-0.156171	1.912175	0.031246	-1.140503	14.179924	0.000000	0.000000	16.270614	6.409115	-9.674248	23.824538	-63.883063	-4.953141	142.572286	40.371791	19.827734	12.068939	65.557640	-64.221030	22.519091	147.229550	37.935374	23.382163	24.019599
4.233333	-1.753253	2.926235	98.745353	0.131593	1.005426	0.514118	3.122640	-2.043190	-13.309819	15.834171	0.276358	30.156237	18.410608	0.000000	3.135654	-5.469867	-19.421272	17.488221	0.305227	31.137240	18.428244	0.000000	0.026699	-0.111597	2.396229	0.049583	-0.148424	2.545994	0.043864	-0.271337	2.545994	0.030514	-0.271337	2.096701	0.024793	-0.227568	1.946936	0.015256	-0.172864	1.797172	0.190709	-1.262407	13.327109	0.000000	0.000000	14.994011	7.162658	-10.179774	19.015660	-60.950875	-7.619176	140.422368	41.784550	16.038223	12.932274	57.532491	-64.092734	16.881180	145.974585	45.270874	20.613544	20.844408
4.250000	-1.761964	2.652241	98.769900	0.133486	1.005340	0.514295	3.061825	-1.864885	-13.284238	15.081064	0.263214	29.728339	18.406438	0.000000	3.726333	-5.599669	-19.123875	18.255530	0.318619	31.422743	18.292814	0.000000	0.040159	-0.125519	2.243114	0.074579	-0.166940	2.383309	0.065977	-0.305186	2.383309	0.045897	-0.305186	1.962725	0.037291	-0.255957	1.822530	0.022947	-0.194428	1.682336	0.286849	-1.419890	12.475528	0.000000	0.000000	13.536629	7.815815	-10.656240	14.192575	-57.869519	-9.993930	138.021444	43.827507	12.430085	13.672824	49.743605	-63.521087	12.152927	144.502549	52.534218	17.970151	17.651982
4.266667	-1.792845	2.490392	98.873336	0.134964	1.005281	0.514438	2.884807	-1.716570	-13.342124	14.386435	0.251091	29.380477	18.396099	0.000000	4.100775	-5.663459	-18.647322	18.863392	0.329228	31.716100	18.229116	0.000000	0.044841	-0.137749	2.091345	0.083274	-0.183206	2.222054	0.073669	-0.334923	2.222054	0.051249	-0.334923	1.829927	0.041639	-0.280898	1.699218	0.025622	-0.213373	1.568509	0.320294	-1.558244	11.631433	0.000000	0.000000	11.959379	8.277468	-11.029501	9.683066	-54.771049	-11.731402	135.334480	46.823692	9.189530	13.955591	42.166422	-62.405156	8.333511	142.807037	59.389935	15.471653	14.732875
4.283333	-1.828301	2.425220	99.034089	0.136018	1.005213	0.514597	2.627946	-1.589754	-13.466693	13.768470	0.240305	29.118547	18.370560	0.000000	4.271333	-5.663907	-17.979626	19.297866	0.336811	31.993836	18.174580	0.000000	0.044215	-0.146732	1.941928	0.082112	-0.195153	2.063298	0.072641	-0.356763	2.063298	0.050533	-0.356763	1.699187	0.041058	-0.299215	1.577816	0.025264	-0.227287	1.456446	0.315823	-1.659858	10.800420	0.000000	0.000000	10.340109	8.510771	-11.272095	5.402412	-51.748895	-12.884197	132.343321	50.601451	6.464669	13.840223	34.943143	-60.652424	5.490377	140.821862	65.684993	13.124436	12.276305
4.300000	-1.838429	2.472165	99.197627	0.136599	1.005124	0.514865	2.309779	-1.465943	-13.622247	13.265543	0.231527	28.935649	18.332171	0.000000	4.225039	-5.627816	-17.181830	19.555801	0.341313	32.277590	18.134488	0.000000	0.035607	-0.146964	1.808105	0.066126	-0.195462	1.921111	0.058499	-0.357329	1.921111	0.040695	-0.357329	1.582092	0.033065	-0.299689	1.469085	0.020346	-0.227648	1.356079	0.254336	-1.662489	10.056137	0.000000	0.000000	8.802906	8.383501	-11.410148	1.488198	-48.915169	-13.379607	129.066355	54.756078	4.378824	13.535364	28.272562	-58.253117	3.704206	138.443939	71.254583	10.935004	10.433841
